<?xml version="1.0" encoding="iso-8859-1"?>
<!-- Generator: Adobe Illustrator 19.0.0, SVG Export Plug-In . SVG Version: 6.00 Build 0)  -->
<svg version="1.1" id="Capa_1" xmlns="http://www.w3.org/2000/svg" xmlns:xlink="http://www.w3.org/1999/xlink" x="0px" y="0px"
	 viewBox="0 0 480 480" style="enable-background:new 0 0 480 480;" xml:space="preserve">
<path id="XMLID_819_" d="M251,90c0-5.523,4.477-10,10-10h2c5.523,0,10,4.477,10,10s-4.477,10-10,10h-2
	C255.477,100,251,95.523,251,90z M217,100h2c5.523,0,10-4.477,10-10s-4.477-10-10-10h-2c-5.523,0-10,4.477-10,10
	S211.477,100,217,100z M480,200v250c0,16.542-13.458,30-30,30H30c-16.542,0-30-13.458-30-30V200c0-16.542,13.458-30,30-30h42.57
	c6.191-17.461,22.874-30,42.43-30h10c3.895,0,7.676,0.498,11.283,1.432c-0.166-1.054-0.316-2.112-0.45-3.173
	C126.569,134.596,120,125.551,120,115c0-12.376,9.04-22.681,20.864-24.658C154.356,51.713,189.38,24.367,230,20.477V10
	c0-5.523,4.477-10,10-10s10,4.477,10,10v10.477c40.62,3.89,75.644,31.236,89.136,69.865C350.96,92.319,360,102.624,360,115
	c0,10.551-6.569,19.596-15.833,23.259c-0.134,1.061-0.284,2.119-0.45,3.173C347.324,140.498,351.105,140,355,140h10
	c19.556,0,36.239,12.539,42.43,30H450C466.542,170,480,183.458,480,200z M334.651,170.492c-1,2.078-2.943,4.216-4.359,10.684
	c-0.017,0.079-0.289,2.612-0.292,3.764c0,0.003,0,0.005,0,0.008c0,0.006,0,0.012,0,0.018c0,0.011,0,0.022,0,0.033
	c0,13.785,11.215,25,25,25h10c13.785,0,25-11.215,25-25c0-1.114-0.073-2.21-0.215-3.286c-0.032-0.186-0.059-0.374-0.081-0.563
	C387.848,169.187,377.477,160,365,160h-10C346.62,160,339.189,164.145,334.651,170.492z M140,115c0,2.757,2.243,5,5,5h0.131
	c5.322,0,9.711,4.168,9.986,9.482c0.562,10.837,3.182,21.381,7.683,31.125c1.504,2.323,4.665,8.728,5.081,9.393h25.283
	c-7.24-7.51-12.734-16.8-15.699-27.277c-1.504-5.314,1.585-10.841,6.899-12.345c5.315-1.505,10.841,1.585,12.345,6.899
	C202.162,156.544,219.963,170,240,170s37.838-13.456,43.29-32.723c1.504-5.314,7.033-8.402,12.345-6.899
	c5.314,1.503,8.403,7.031,6.899,12.345c-2.965,10.478-8.458,19.768-15.699,27.277h25.283c0.416-0.666,3.577-7.07,5.081-9.393
	c4.501-9.743,7.121-20.288,7.683-31.125c0.275-5.314,4.665-9.482,9.986-9.482H335c2.757,0,5-2.243,5-5s-2.243-5-5-5h-3.331
	c-4.512,0-8.465-3.021-9.649-7.375c-9.15-33.627-38.008-58.006-72.037-62.037C249.678,45.837,245.325,50,240,50
	s-9.678-4.163-9.983-9.412c-34.029,4.031-62.887,28.41-72.037,62.037c-1.185,4.354-5.138,7.375-9.649,7.375H145
	C142.243,110,140,112.243,140,115z M90,185c0,13.785,11.215,25,25,25h10c13.785,0,25-11.215,25-25c0-0.011,0-0.022,0-0.033
	c0-0.006,0-0.012,0-0.018c0-0.003,0-0.005,0-0.008c-0.003-1.152-1-8.524-4.651-14.448C140.811,164.145,133.38,160,125,160h-10
	c-12.477,0-22.848,9.187-24.704,21.151C90.274,181.34,90,183.886,90,185z M460,200c0-5.514-4.486-10-10-10h-40.276
	c-2.496,22.468-21.601,40-44.724,40h-10c-23.123,0-42.229-17.532-44.724-40H169.724c-2.496,22.468-21.601,40-44.724,40h-10
	c-23.123,0-42.229-17.532-44.724-40H30c-5.514,0-10,4.486-10,10v250c0,5.514,4.486,10,10,10h420c5.514,0,10-4.486,10-10V200z
	 M416.5,275c-5.523,0-10,4.477-10,10v20c0,11.028-8.972,20-20,20s-20-8.972-20-20v-20c0-5.523-4.477-10-10-10s-10,4.477-10,10v20
	c0,18.604,12.767,34.283,30,38.734V365c0,5.523,4.477,10,10,10s10-4.477,10-10v-21.266c17.233-4.451,30-20.13,30-38.734v-20
	C426.5,279.477,422.023,275,416.5,275z M231.5,315v50c0,5.523-4.477,10-10,10s-10-4.477-10-10v-20h-40v20c0,5.523-4.477,10-10,10
	s-10-4.477-10-10v-50c0-22.056,17.944-40,40-40S231.5,292.944,231.5,315z M211.5,315c0-11.028-8.972-20-20-20s-20,8.972-20,20v10h40
	V315z M133.5,345c0,16.542-13.458,30-30,30h-40c-5.523,0-10-4.477-10-10v-80c0-5.523,4.477-10,10-10h30c16.542,0,30,13.458,30,30
	c0,5.345-1.404,10.367-3.865,14.718C127.967,325.054,133.5,334.393,133.5,345z M73.5,315h20c5.514,0,10-4.486,10-10s-4.486-10-10-10
	h-20V315z M113.5,345c0-5.514-4.486-10-10-10h-30v20h30C109.014,355,113.5,350.514,113.5,345z M334.5,345c0,16.542-13.458,30-30,30
	h-40c-5.523,0-10-4.477-10-10v-80c0-5.523,4.477-10,10-10h30c16.542,0,30,13.458,30,30c0,5.345-1.404,10.367-3.865,14.718
	C328.967,325.054,334.5,334.393,334.5,345z M274.5,315h20c5.514,0,10-4.486,10-10s-4.486-10-10-10h-20V315z M314.5,345
	c0-5.514-4.486-10-10-10h-30v20h30C310.014,355,314.5,350.514,314.5,345z"/>
<g>
</g>
<g>
</g>
<g>
</g>
<g>
</g>
<g>
</g>
<g>
</g>
<g>
</g>
<g>
</g>
<g>
</g>
<g>
</g>
<g>
</g>
<g>
</g>
<g>
</g>
<g>
</g>
<g>
</g>
</svg>
