<?xml version="1.0" encoding="utf-8"?>
<!-- Generator: Adobe Illustrator 23.0.5, SVG Export Plug-In . SVG Version: 6.00 Build 0)  -->
<svg version="1.1" id="Capa_1" xmlns="http://www.w3.org/2000/svg" xmlns:xlink="http://www.w3.org/1999/xlink" x="0px" y="0px"
	 viewBox="0 0 201.9 201.9" style="enable-background:new 0 0 201.9 201.9;" xml:space="preserve">
<g>
	<path d="M104.1,162.1c0-1.7,1.3-3,3-3h10.4c4.4,2.9,9.3,5,14.6,5.9c-0.2,0.1-0.4,0.1-0.6,0.1h-24.3
		C105.5,165.1,104.1,163.8,104.1,162.1z M96.7,137.9h5.4c-0.6-2-1-4-1.2-6.1h-4.2c-1.7,0-3,1.4-3,3S95,137.9,96.7,137.9z M74.4,61.5
		c-3.7-2.5-6.3-7.4-6.3-11.9c0-6.3,5.1-11.4,11.4-11.4c6.3,0,11.4,5.1,11.4,11.4c0,4.4-2.6,9.4-6.3,11.9c8.9,2.3,15.5,10,15.5,15.7
		c0,6.8-41.1,6.8-41.1,0C59,71.5,65.6,63.7,74.4,61.5z M73.8,76.5l5.8,5.8l5.8-5.8l-4.9-11.7h0l1.9-2.2c-0.9,0.3-1.9,0.5-2.8,0.5
		c-1,0-1.9-0.2-2.8-0.5l1.9,2.2h0L73.8,76.5z M149.8,176.8L149.8,176.8l-0.1-0.3c-0.1,0-0.1,0-0.2,0H44c-5.4,0-9.9-4.4-9.9-9.9V34.9
		c0-5.4,4.4-9.9,9.9-9.9h105.4c5.4,0,9.9,4.4,9.9,9.9v60.3c2.4,1.5,4.6,3.2,6.6,5.2V34.9c0-9.1-7.4-16.5-16.5-16.5H44
		c-9.1,0-16.5,7.4-16.5,16.5v131.8c0,9.1,7.4,16.5,16.5,16.5h105.4c1.3,0,2.5-0.2,3.7-0.5L149.8,176.8z M62,124.1h38.8
		c0.2-2,0.5-4,1-6.1H62c-1.7,0-3,1.4-3,3C59,122.8,60.3,124.1,62,124.1z M62,96.5h54.4c1.1-0.8,2.2-1.5,3.4-2.2c3-1.7,6.1-3,9.4-3.9
		H62c-1.7,0-3,1.4-3,3C59,95.2,60.3,96.5,62,96.5z M62,110.3h42.7c1.1-2.1,2.3-4.2,3.8-6.1H62c-1.7,0-3,1.4-3,3
		C59,109,60.3,110.3,62,110.3z M165.4,112.2c8.4,14.6,3.4,33.4-11.2,41.8c-14.6,8.4-33.4,3.4-41.8-11.2
		c-8.4-14.6-3.4-33.4,11.2-41.8C138.2,92.5,156.9,97.5,165.4,112.2z M161,114.7c-7-12.2-22.7-16.4-34.9-9.4
		c-12.2,7.1-16.4,22.7-9.3,34.9c7,12.2,22.7,16.4,34.9,9.4C163.8,142.5,168,126.9,161,114.7z M161.9,152.1l-13.2,7.6l10.1,17.5
		l13.2-7.6L161.9,152.1z M173.4,172l-13.2,7.6c2.1,3.6,6.8,4.9,10.4,2.8C174.2,180.3,175.5,175.7,173.4,172z"/>
</g>
</svg>
