<?xml version="1.0" encoding="utf-8"?>
<!-- Generator: Adobe Illustrator 23.0.5, SVG Export Plug-In . SVG Version: 6.00 Build 0)  -->
<svg version="1.1" id="Capa_1" xmlns="http://www.w3.org/2000/svg" xmlns:xlink="http://www.w3.org/1999/xlink" x="0px" y="0px"
	 viewBox="0 0 51.8 51.8" style="enable-background:new 0 0 51.8 51.8;" xml:space="preserve">
<g>
	<path d="M34.1,6.2H18.4c-2.1,0-3.8,1.7-3.8,3.8v1.1c-0.4,0-0.7,0.3-0.7,0.7v0.7c0,0.4,0.3,0.7,0.7,0.7v0.7c-0.4,0-0.7,0.3-0.7,0.7
		v0.7c0,0.4,0.3,0.7,0.7,0.7v0.7c-0.4,0-0.7,0.3-0.7,0.7v0.7c0,0.4,0.3,0.7,0.7,0.7v23c0,2.1,1.7,3.8,3.8,3.8h15.7
		c2.1,0,3.8-1.7,3.8-3.8V10C37.9,7.9,36.2,6.2,34.1,6.2z M36.5,41.9c0,1.3-1.1,2.4-2.4,2.4H18.4c-1.3,0-2.4-1.1-2.4-2.4V10
		c0-1.3,1.1-2.4,2.4-2.4h15.7c1.3,0,2.4,1.1,2.4,2.4V41.9z"/>
	<path d="M26.6,10.4h2.1c0.4,0,0.7-0.3,0.7-0.7S29.1,9,28.7,9h-2.1c-0.4,0-0.7,0.3-0.7,0.7S26.2,10.4,26.6,10.4z"/>
	<path d="M23.8,10.4c0.2,0,0.4-0.1,0.5-0.2c0.1-0.1,0.2-0.3,0.2-0.5c0-0.2-0.1-0.4-0.2-0.5c-0.3-0.3-0.7-0.3-1,0
		c-0.1,0.1-0.2,0.3-0.2,0.5c0,0.2,0.1,0.4,0.2,0.5C23.4,10.3,23.6,10.4,23.8,10.4z"/>
	<circle cx="26.3" cy="41.8" r="1.8"/>
	<path d="M16.7,39.3h19V11.1h-19V39.3z M28.2,14.1l0.7-0.7c0.3-0.3,0.7-0.3,1,0c0.3,0.3,0.3,0.7,0,1l-0.7,0.7
		c-0.1,0.1-0.3,0.2-0.5,0.2s-0.4-0.1-0.5-0.2C27.9,14.9,27.9,14.4,28.2,14.1z M27.8,15.5c0.1,0.1,0.2,0.3,0.2,0.5
		c0,0.2-0.1,0.4-0.2,0.5c-0.1,0.1-0.3,0.2-0.5,0.2s-0.4-0.1-0.5-0.2c-0.1-0.1-0.2-0.3-0.2-0.5c0-0.2,0.1-0.4,0.2-0.5
		C27.1,15.3,27.6,15.3,27.8,15.5z M25.4,13.4c0.3-0.3,0.7-0.3,1,0c0.3,0.3,0.3,0.7,0,1l-2.1,2.1c-0.1,0.1-0.3,0.2-0.5,0.2
		s-0.4-0.1-0.5-0.2c-0.3-0.3-0.3-0.7,0-1L25.4,13.4z M19.1,16.2l2.8-2.8c0.3-0.3,0.7-0.3,1,0c0.3,0.3,0.3,0.7,0,1l-2.8,2.8
		c-0.1,0.1-0.3,0.2-0.5,0.2s-0.4-0.1-0.5-0.2C18.8,17,18.8,16.5,19.1,16.2z M23.1,17.4c0,0.2-0.1,0.4-0.2,0.5
		c-0.1,0.1-0.3,0.2-0.5,0.2s-0.4-0.1-0.5-0.2c-0.1-0.1-0.2-0.3-0.2-0.5c0-0.2,0.1-0.4,0.2-0.5c0.3-0.3,0.7-0.3,1,0
		C23,17.1,23.1,17.3,23.1,17.4z M19.1,19.8l1.4-1.4c0.3-0.3,0.7-0.3,1,0c0.3,0.3,0.3,0.7,0,1l-1.4,1.4c-0.1,0.1-0.3,0.2-0.5,0.2
		s-0.4-0.1-0.5-0.2C18.8,20.5,18.8,20,19.1,19.8z M19.1,23.3l6.3-6.3c0.3-0.3,0.7-0.3,1,0c0.3,0.3,0.3,0.7,0,1l-6.3,6.3
		c-0.1,0.1-0.3,0.2-0.5,0.2s-0.4-0.1-0.5-0.2C18.8,24,18.8,23.6,19.1,23.3z"/>
</g>
</svg>
