<?xml version="1.0" encoding="utf-8"?>
<!-- Generator: Adobe Illustrator 23.0.5, SVG Export Plug-In . SVG Version: 6.00 Build 0)  -->
<svg version="1.1" id="Capa_1" xmlns="http://www.w3.org/2000/svg" xmlns:xlink="http://www.w3.org/1999/xlink" x="0px" y="0px"
	 viewBox="0 0 731.6 529" style="enable-background:new 0 0 731.6 529;" xml:space="preserve">
<g>
	<path d="M665,83l11.9-3.6c0.4,0.7,1,1.4,1.6,2.2c3.8,4.3,8.7,6.8,14,6.8s10.3-2.5,14-6.8c7.7-9.1,7.7-23.7,0-32.8
		c-3.8-4.3-8.7-6.8-14-6.8s-10.3,2.5-14,6.8c-3.8,4.3-5.6,10-5.8,15.6l-11.1,3.5c-9.1,2.7-15.8,11.6-17.2,22.3
		c-13-3.5-23.6-5.2-28.5-5.8c-0.1-13.7-9.8-24.9-21.6-24.9c-11.7,0-21.4,11.1-21.6,24.9c-5.1,0.7-15.5,2.3-28.5,5.8
		c-1.4-10.7-8.1-19.4-17.2-22.3l-11.1-3.5c-0.1-5.6-2-11.3-5.8-15.6c-3.8-4.3-8.7-6.8-14-6.8s-10.3,2.5-14,6.8
		c-7.7,9.1-7.7,23.7,0,32.8c3.8,4.3,8.7,6.8,14,6.8s10.3-2.5,14-6.8c0.6-0.7,1.2-1.4,1.6-2.2l11.9,3.6c4.3,1.3,7.4,5.6,7.5,10.9V94
		c-1.7,0.6-3.6,1.3-5.5,1.9l-0.7-2.2c-1.3-4.1-5.2-6.1-8.7-4.5c-3.5,1.6-5.2,6.1-3.9,10.1l0.6,1.6c-6.2,2.7-12.6,5.9-18.7,9.5
		c-3.3,1.9-4.6,6.7-3,10.6c1.2,2.7,3.5,4.3,5.9,4.3c1,0,2-0.3,3-0.9c5.8-3.3,11.7-6.4,17.5-8.8l0.6,1.9c1,3.2,3.6,5.1,6.2,5.1
		c0.9,0,1.6-0.1,2.5-0.6c3.5-1.6,5.2-6.1,3.9-10.1l-0.4-1.3c18.1-6.4,34.3-9.4,41.8-10.6c-1.9,1.9-3.8,4.1-5.2,6.4
		c-11.3,4.5-19.1,16.9-19.1,31.2v44.6h-2.6c-3.8,0-6.7,3.5-6.7,7.8s3,7.8,6.7,7.8h2.6V259c-10.6,0.9-19.1,11.3-19.1,23.9v52.1h-16.9
		c-3.8,0-6.7,3.5-6.7,7.8c0,4.3,3,7.8,6.7,7.8h16.9v29.1c0,13.2,9.1,24,20.4,24h20.1v65.8c0,16.1,11.1,29.1,24.9,29.1
		c13.7,0,24.9-13,24.9-29.1v-65.8h20.1c11.3,0,20.4-10.7,20.4-24v-29.1h16.9c3.8,0,6.7-3.5,6.7-7.8c0-4.3-3-7.8-6.7-7.8h-16.9v-52.1
		c0-12.7-8.4-23-19.1-23.9v-61.1h2.5c3.8,0,6.7-3.5,6.7-7.8s-3-7.8-6.7-7.8h-2.3v-44.6c0-14.3-7.7-26.8-19.1-31.2
		c-1.6-2.3-3.3-4.5-5.2-6.4c7.7,1.2,23.7,4.1,41.8,10.6l-0.4,1.3c-1.3,4.1,0.4,8.5,3.9,10.1c0.7,0.3,1.6,0.6,2.5,0.6
		c2.7,0,5.2-1.9,6.2-5.1l0.6-1.9c5.8,2.6,11.7,5.5,17.5,8.8c1,0.6,2,0.9,3,0.9c2.5,0,4.8-1.6,5.9-4.3c1.6-3.9,0.3-8.5-3-10.6
		c-6.2-3.6-12.4-6.8-18.7-9.5l0.6-1.6c1.3-4.1-0.4-8.5-3.9-10.1c-3.5-1.6-7.4,0.4-8.7,4.5l-0.7,2.2c-1.9-0.7-3.6-1.3-5.5-1.9v-0.1
		C657.7,88.7,660.7,84.3,665,83z M687.9,59.9c1.2-1.4,2.7-2.2,4.5-2.2s3.3,0.7,4.5,2.2c2.5,2.9,2.5,7.7,0,10.6
		c-1.2,1.4-2.7,2.2-4.5,2.2s-3.3-0.7-4.5-2.2C685.4,67.6,685.4,62.8,687.9,59.9z M500.5,70.4c-1.2,1.4-2.7,2.2-4.5,2.2
		c-1.7,0-3.3-0.7-4.5-2.2c-2.5-2.9-2.5-7.7,0-10.6c1.2-1.4,2.7-2.2,4.5-2.2c1.7,0,3.3,0.7,4.5,2.2C503,62.8,503,67.6,500.5,70.4z
		 M619,286.2h5.1V366H619V286.2z M605.7,252.6c-3.5-2.2-7.4-3.3-11.4-3.3c-4.2,0-8.1,1.2-11.4,3.3V198h23v54.5H605.7z M569.4,366.2
		h-5.1v-79.9h5.1V366.2z M582.7,182.3v-13.2c3.6,1.4,7.4,2.3,11.4,2.3s7.8-0.9,11.4-2.3v13.2H582.7z M615.3,131.1
		c0,13.6-9.4,24.6-21,24.6c-11.6,0-21-11-21-24.6s9.4-24.6,21-24.6C605.9,106.5,615.3,117.6,615.3,131.1z M594.3,75.1
		c4.5,0,8.2,4.3,8.2,9.5v7.2c-2.6-0.7-5.4-1.2-8.2-1.2c-2.9,0-5.5,0.4-8.2,1.2v-7.2C586,79.4,589.7,75.1,594.3,75.1z M561.3,142.8
		c1.6,6.1,4.3,11.6,8.1,16.1v23.3h-8.1V142.8z M569.4,197.9v72.6h-8.1v-72.6H569.4z M549.3,388.1c-3.9,0-7.1-3.8-7.1-8.2V343l0,0
		l0,0v-59.9c0-4.1,2.5-7.4,5.6-8.1v3.5c0,2.7,1.2,5.2,3,6.5v89.3c0,4.3,3,7.8,6.7,7.8c0.7,0,1.3-0.1,2-0.3h9.7v6.2L549.3,388.1
		L549.3,388.1z M605.7,469.6c0,7.4-5.2,13.5-11.4,13.5c-6.4,0-11.4-6.1-11.4-13.5V278.5c0,0,0,0,0-0.1v-0.1
		c0-7.4,5.2-13.3,11.4-13.3c6.4,0,11.4,6.1,11.4,13.5V469.6z M646.2,283v59.9l0,0l0,0v36.9c0,4.5-3.2,8.2-7.1,8.2H619v-6.2h9.7
		c0.6,0.3,1.3,0.3,2,0.3c3.8,0,6.7-3.5,6.7-7.8v-89.4c1.9-1.4,3-3.8,3-6.5v-3.5C643.8,275.6,646.2,278.9,646.2,283z M627.1,270.5
		H619v-72.6h8.1V270.5z M619.2,182.3V159c3.6-4.5,6.5-10,8.1-16.1v39.4L619.2,182.3L619.2,182.3z"/>
	<path d="M587.6,223.1c0.6,3.3,3,5.9,5.9,6.2c2.7,0.3,5.4-1.4,6.7-4.2c1.3-2.9,0.9-6.5-1-8.8c-1.9-2.5-4.9-3.2-7.5-1.9
		C588.7,215.7,587.1,219.5,587.6,223.1C587.8,223.5,587.6,222.5,587.6,223.1z"/>
</g>
<path d="M504.9,201.8c-1.2-4.1-5.4-7.2-9-7.2c-15.3,0-30.7,0-46,0c-3,0-6.3,2.3-8.1,5.3c-9.6-26.9-20.7-54.7-31.4-73.8
	c-2-3.5-4.8-6-8.1-7.2c-2-0.8-48.8-17.1-145.3-17.1s-143.3,16.5-145.3,17.1c-3.3,1.2-6.3,3.8-8.1,7.2
	c-10.7,19.2-21.8,46.9-31.4,73.8c-1.8-3.2-5.3-5.3-8.1-5.3c-15.3,0-30.7,0-46,0c-3.6,0-7.8,3.2-9,7.2c-4.7,15.9-4.7,24.9,0,40.9
	c1.2,4.1,5.4,7.2,9,7.2c8.1,0,16.1,0,24.2,0c-11.3,13.2-18.2,31.4-18.2,51.4c0,0.9,0,1.8,0.2,2.9l1.5,12.5c0.5,4.2,2,8,4.2,10.8
	v28.4h-1.8c-3.3,0-6,3.2-6,7.1v84.6c0,15.8,11,28.5,24.5,28.5h48.8c13.5,0,24.5-12.8,24.5-28.5v-36.2h276.5v36.2
	c0,15.8,11,28.5,24.5,28.5h48.8c13.5,0,24.5-12.8,24.5-28.5v-84.3c0-3.9-2.7-7.1-6-7.1h-1.4v-25.7c3.6-3.3,6.2-8.1,6.8-13.7
	l1.5-12.5c0.2-0.9,0.2-1.8,0.2-2.9c0-20.1-6.9-38.3-18.2-51.4c6.3,0,12.8,0,19.1,0c3.6,0,7.8-3.2,9-7.2
	C509.6,226.9,509.6,217.7,504.9,201.8z M125.7,151c14.1-3.9,57.5-14.1,131.3-14.1s117,10.1,131.3,14.1c10.1,19.5,20.6,47.2,29.6,73
	c-23.6-4.5-70.2-9.6-159.6-9.6c-95.1,0-140.9,5.9-162.4,10.7C104.8,198.9,115.5,170.8,125.7,151z M42.3,395.4v-18.3H85l4.5,18.3
	H42.3z M41.7,356.1v-34.7l83.1,6.3l8.1,28.4H41.7z M360.2,392.6H156l-6.3-23.9h216.7L360.2,392.6z M370.7,356.1H145.5l-6.2-21.3
	h237.4L370.7,356.1z M135.7,321.4l-6.2-23.7h257.2l-6.2,23.7H135.7z M474,395.4h-47.2l4.5-18.3H474V395.4L474,395.4z M474.6,356.1
	h-91.2l8.1-28.4l83.1-6.3L474.6,356.1L474.6,356.1z"/>
</svg>
