<?xml version="1.0" encoding="utf-8"?>
<!-- Generator: Adobe Illustrator 23.0.5, SVG Export Plug-In . SVG Version: 6.00 Build 0)  -->
<svg version="1.1" id="Capa_1" xmlns="http://www.w3.org/2000/svg" xmlns:xlink="http://www.w3.org/1999/xlink" x="0px" y="0px"
	 viewBox="0 0 277.4 277.4" style="enable-background:new 0 0 277.4 277.4;" xml:space="preserve">
<g>
	<path d="M106.7,112.7c1,0,2-0.1,3-0.2c7.9-1.1,14.7-6.3,19.2-14.6c4.2-7.9,5.8-17.8,4.4-27.9c-2.7-19.5-16.4-34.7-31.2-34.7
		c-1,0-2,0.1-3,0.2c-7.7,1.1-14.4,6.1-18.9,14.2c-4.4,8-6.1,18.1-4.7,28.3C78.3,97.5,92,112.7,106.7,112.7z M86.8,53.3
		c3.3-6,8-9.7,13.4-10.4c0.7-0.1,1.3-0.1,2-0.1c10.9,0,21.6,12.7,23.8,28.3c1.2,8.5-0.1,16.8-3.6,23.4c-3.3,6.2-8.1,10-13.6,10.7
		c-0.7,0.1-1.3,0.1-2,0.1C95.8,105.2,85.1,92.6,83,77C81.8,68.3,83.1,59.9,86.8,53.3z"/>
	<path d="M46.2,87.3c-1.5,0-3.1,0.2-4.6,0.6c-6.3,1.6-11.2,6.3-13.9,13.1c-2.6,6.4-2.9,14.3-0.9,22c3.7,14.3,14.1,24.3,25.3,24.3
		c1.5,0,3.1-0.2,4.6-0.6c12.5-3.2,19-18.7,14.8-35.2C67.8,97.3,57.4,87.3,46.2,87.3z M54.8,139.5c-0.9,0.2-1.9,0.3-2.8,0.3
		c-7.8,0-15.3-7.7-18.1-18.6c-1.6-6.2-1.4-12.4,0.6-17.4c1.8-4.6,5-7.7,8.8-8.6c0.9-0.2,1.9-0.3,2.8-0.3c7.8,0,15.3,7.7,18.1,18.6
		C67.4,125.9,63.3,137.4,54.8,139.5z"/>
	<path d="M178.3,35.5c-1-0.1-2-0.2-3-0.2c-14.8,0-28.5,15.3-31.2,34.7c-1.4,10.1,0.2,20,4.4,27.9c4.4,8.3,11.2,13.5,19.2,14.6
		c1,0.1,2,0.2,3,0.2c14.8,0,28.5-15.3,31.2-34.7c1.4-10.2-0.2-20.3-4.7-28.3C192.7,41.6,186,36.5,178.3,35.5z M194.4,76.9
		c-2.2,15.9-12.6,28.3-23.8,28.3c-0.7,0-1.3,0-2-0.1c-5.5-0.8-10.3-4.6-13.6-10.7c-3.5-6.6-4.8-14.9-3.6-23.4
		c2.2-15.6,12.8-28.3,23.8-28.3c0.7,0,1.3,0,2,0.1c5.3,0.7,10.1,4.4,13.4,10.4C194.3,59.9,195.6,68.3,194.4,76.9z"/>
	<path d="M235.8,87.9c-1.5-0.4-3.1-0.6-4.6-0.6c-11.2,0-21.6,10-25.3,24.3c-4.2,16.5,2.3,31.9,14.8,35.2c1.5,0.4,3.1,0.6,4.6,0.6
		c0,0,0,0,0,0c11.2,0,21.6-10,25.3-24.3C254.8,106.6,248.3,91.1,235.8,87.9z M243.4,121.2c-2.8,11-10.2,18.6-18.1,18.6h0
		c-0.9,0-1.9-0.1-2.8-0.3c-8.5-2.2-12.6-13.6-9.4-26.1c2.8-11,10.2-18.6,18.1-18.6c0.9,0,1.9,0.1,2.8,0.3
		C242.4,97.3,246.6,108.8,243.4,121.2z"/>
	<path d="M166.2,128.1c-10.6,0-20.2,5.1-27.5,14.6c-7.3-9.5-16.9-14.6-27.5-14.6c-16,0-30.2,11.7-34.5,28.5
		c-2.3,9-2.7,23.4,8.2,40.8c10.1,16.1,27.6,31,52,44.3c0.6,0.3,1.2,0.5,1.8,0.5c0.6,0,1.2-0.2,1.8-0.5c24.4-13.3,41.9-28.2,52-44.3
		c10.9-17.4,10.5-31.8,8.2-40.8C196.4,139.8,182.2,128.1,166.2,128.1z M138.7,234.1c-60.1-33.5-57.1-66.3-54.7-75.7
		c3.4-13.5,14.6-22.9,27.2-22.9c9.5,0,18.2,5.6,24.3,15.7c0.7,1.1,1.9,1.8,3.2,1.8c0,0,0,0,0,0c1.3,0,2.5-0.7,3.2-1.8
		c6.1-10.1,14.8-15.7,24.3-15.7c12.6,0,23.8,9.4,27.3,22.9C195.8,167.8,198.8,200.7,138.7,234.1z"/>
</g>
</svg>
