<?xml version="1.0" encoding="utf-8"?>
<!-- Generator: Adobe Illustrator 23.0.5, SVG Export Plug-In . SVG Version: 6.00 Build 0)  -->
<svg version="1.1" id="Capa_1" xmlns="http://www.w3.org/2000/svg" xmlns:xlink="http://www.w3.org/1999/xlink" x="0px" y="0px"
	 viewBox="0 0 391.8 391.8" style="enable-background:new 0 0 391.8 391.8;" xml:space="preserve">
<path d="M357.6,158.4l-55.2-84.2c-0.4-0.6-0.9-1-1.5-1.3c0,0-78-35.7-81.7-34.4l-0.4,0.1c-14.8,5-31.1,5-45.9,0l-0.4-0.1
	c-3.6-1.2-81.7,34.4-81.7,34.4c-0.6,0.3-1.2,0.7-1.5,1.3l-55.2,84.2c-0.9,1.4-0.7,3.3,0.4,4.5c0.9,1,23.4,23.6,64.4,32.9
	c1.5,0.3,3-0.3,3.8-1.5l10.5-16.1l1.1,162.8c0,1.7,1.2,3.1,2.8,3.5c25.8,6,52.3,9,78.8,9s53-3,78.8-9c1.6-0.4,2.8-1.8,2.8-3.5
	l1.1-162.8l10.5,16.1c0.8,1.3,2.3,1.9,3.8,1.5c41-9.2,63.4-31.9,64.4-32.9C358.4,161.7,358.6,159.8,357.6,158.4z M301.7,86.2
	l41.6,63.4c-10.7,7.8-30.2,20.2-55.9,28.8l-8.1-12.4C291.6,146.5,298.9,105,301.7,86.2z M159.5,51.2c3.1,9.7,11.9,21.2,36.3,21.2
	c24.4,0,33.2-11.5,36.3-21.2c0.1-0.4,0.2-0.8,0.3-1.2l4,1.8c-0.1,0.2-0.1,0.5-0.2,0.7c-6.8,21.1-28.2,24.2-40.5,24.2
	c-12.2,0-33.7-3.1-40.5-24.2c-0.1-0.2-0.1-0.5-0.2-0.7l4-1.8C159.3,50.4,159.4,50.8,159.5,51.2z M167.1,46c0.3-0.3,1-0.9,2-0.9
	c0.3,0,0.6,0.1,1,0.2l0.5,0.2c16.3,5.5,34.2,5.5,50.5,0l0.5-0.2c1.6-0.5,2.6,0.3,3,0.7c0.4,0.4,1.2,1.4,0.7,3
	c-3.4,10.8-13.4,16.2-29.5,16.2c-16.1,0-26-5.5-29.5-16.2C165.9,47.4,166.8,46.3,167.1,46z M112.5,166.1l-8.1,12.4
	c-25.7-8.6-45.2-21-55.9-28.8l41.6-63.4C92.9,105,100.2,146.5,112.5,166.1z M98.1,188.2c-30.5-7.4-50.1-22.9-56.3-28.3l2.7-4.2
	c12.5,9.1,31.3,20.6,55.8,29L98.1,188.2z M270.3,337.9c-48.7,10.9-100,10.9-148.7,0L120.4,166c0-0.2-0.1-0.5-0.1-0.8
	c-0.2-0.7-0.5-1.3-0.9-1.9c-13.7-20.2-21.4-72.7-23.1-85l52.4-23.6c3.5,10.9,14.4,29.1,47.3,29.1c32.9,0,43.7-18.2,47.3-29.1
	l52.4,23.6c-1.7,12.3-9.4,64.8-23.1,85c-0.4,0.6-0.7,1.2-0.9,1.9c-0.1,0.3-0.1,0.6-0.1,0.8L270.3,337.9z M293.7,188.2l-2.3-3.5
	c24.5-8.4,43.4-19.9,55.8-29l2.7,4.2C343.8,165.3,324.2,180.7,293.7,188.2z"/>
</svg>
