<?xml version="1.0" encoding="utf-8"?>
<!-- Generator: Adobe Illustrator 23.0.5, SVG Export Plug-In . SVG Version: 6.00 Build 0)  -->
<svg version="1.1" id="Layer_1" xmlns="http://www.w3.org/2000/svg" xmlns:xlink="http://www.w3.org/1999/xlink" x="0px" y="0px"
	 viewBox="0 0 502 502" style="enable-background:new 0 0 502 502;" xml:space="preserve">
<g>
	<g>
		<g>
			<path d="M85.6,245.9c-4.5,0-8.2,3.7-8.2,8.2v59.3c0,4.5,3.7,8.2,8.2,8.2s8.2-3.7,8.2-8.2v-59.3C93.8,249.6,90.1,245.9,85.6,245.9
				z"/>
			<path d="M85.6,203.6c-4.5,0-8.2,3.7-8.2,8.2v14.8c0,4.5,3.7,8.2,8.2,8.2s8.2-3.7,8.2-8.2v-14.8C93.8,207.2,90.1,203.6,85.6,203.6
				z"/>
			<path d="M453.5,431.7l-78-78c1.2-1.5,2.3-3,3.4-4.6h52.6c4.5,0,8.2-3.7,8.2-8.2V126.8c0-1.8,0.2-3.8-0.3-5.6l-15.7-58.8
				c-1-3.6-4.2-6.1-7.9-6.1H70c-3.7,0-6.9,2.5-7.9,6.1l-15.7,58.8c-0.5,1.8-0.3,3.8-0.3,5.6V341c0,4.5,3.7,8.2,8.2,8.2h196.3
				c14.6,21.1,38.3,33.6,64.2,33.6c18.3,0,35.5-6.2,49.2-17.4l78,78c1.6,1.6,3.7,2.4,5.8,2.4s4.2-0.8,5.8-2.4
				C456.7,440.1,456.7,434.9,453.5,431.7z M409.6,72.7l13.7,51.6c-0.5,15.8-13.6,28.6-29.5,28.6h0c-16.3,0-29.6-13.3-29.6-29.6
				c0-0.4,0-0.7-0.1-1.1l-6.6-49.5C357.6,72.7,409.6,72.7,409.6,72.7z M341.1,72.7L341.1,72.7l2.4,18l4.4,33.1
				c-0.3,16.1-13.4,29-29.6,29c-16.3,0-29.6-13.3-29.6-29.6c0-0.2,0-0.4,0-0.5l-3.3-50.1C285.5,72.7,341.1,72.7,341.1,72.7z
				 M215.4,93.2l1.4-20.5h52.3l1.7,26.1l1.6,24.7c-0.1,16.2-13.3,29.3-29.6,29.3c-16.2,0-29.4-13.1-29.6-29.3L215.4,93.2z
				 M142.4,90.7l2.4-18h55.7l-3.3,50.1c0,0.2,0,0.4,0,0.5c0,16.3-13.3,29.6-29.6,29.6c-16.1,0-29.3-13-29.6-29L142.4,90.7z
				 M76.3,72.7h52l-6.6,49.5c0,0.4-0.1,0.7-0.1,1.1c0,16.3-13.3,29.6-29.6,29.6c-16,0-29-12.7-29.5-28.6L76.3,72.7z M189.8,332.8
				h-64.8v0V219.6h64.8V332.8z M241.9,332.8h-35.8v0V211.4c0-4.5-3.7-8.2-8.2-8.2h-81.1c-4.5,0-8.2,3.7-8.2,8.2v121.4H62.5V158.4
				c8,6.7,18.3,10.8,29.6,10.8c15.6,0,29.4-7.8,37.7-19.8c8.3,12,22.1,19.8,37.7,19.8c15.6,0,29.4-7.8,37.7-19.8
				c8.3,12,22.1,19.8,37.7,19.8s29.4-7.8,37.7-19.8c8.3,12,22.1,19.8,37.7,19.8c15.6,0,29.4-7.8,37.7-19.8
				c8.3,12,22.1,19.8,37.7,19.8c11.3,0,21.6-4.1,29.6-10.8v174.5h-35.7c3.5-9,5.3-18.6,5.3-28.3c0-43.1-35.1-78.2-78.2-78.2
				s-78.2,35.1-78.2,78.2C236.6,314.3,238.4,323.9,241.9,332.8z M314.8,366.4c-21.7,0-41.5-11.1-52.8-29.6c-5.9-9.7-9-20.8-9-32.2
				c0-34.1,27.7-61.8,61.8-61.8s61.8,27.7,61.8,61.8c0,11.4-3.1,22.5-9,32.2C356.3,355.3,336.5,366.4,314.8,366.4z"/>
			<path d="M314.8,336.9c-5,0-9.8-1.1-14.3-3.3c-4-2-8.9-0.3-10.9,3.7c-2,4-0.3,8.9,3.7,10.9c6.7,3.3,13.9,5,21.5,5
				c4.5,0,8.2-3.7,8.2-8.2C322.9,340.5,319.3,336.9,314.8,336.9z"/>
			<path d="M314.8,255.9c-26.8,0-48.6,21.8-48.6,48.6c0,7.4,1.6,14.6,4.9,21.2c1.4,2.9,4.3,4.6,7.3,4.6c1.2,0,2.4-0.3,3.6-0.8
				c4.1-2,5.7-6.9,3.8-10.9c-2.1-4.4-3.2-9.2-3.2-14.1c0-17.8,14.5-32.3,32.3-32.3c4.5,0,8.2-3.7,8.2-8.2
				C322.9,259.6,319.3,255.9,314.8,255.9z"/>
		</g>
	</g>
</g>
</svg>
