<?xml version="1.0" encoding="utf-8"?>
<!-- Generator: Adobe Illustrator 23.0.5, SVG Export Plug-In . SVG Version: 6.00 Build 0)  -->
<svg version="1.1" id="Layer_1" xmlns="http://www.w3.org/2000/svg" xmlns:xlink="http://www.w3.org/1999/xlink" x="0px" y="0px"
	 viewBox="0 0 512 512" style="enable-background:new 0 0 512 512;" xml:space="preserve">
<path d="M418.7,229.8h41.8L256,41.9L51.5,229.8h41.8v225.3H60.8v15h390.5v-15h-32.5L418.7,229.8L418.7,229.8z M90,214.8l21.8-20
	h219.3v-15H128.2L256,62.3l166,152.5L90,214.8L90,214.8z M108.3,430.1h72.6v-15h-72.6V229.8h295.4V415h-72.6v15h72.6v25h-90.1v-59.5
	l35-35v-21.5c14.3-3.4,25-16.3,25-31.7c0-17.9-14.6-32.5-32.5-32.5c-17.9,0-32.5,14.6-32.5,32.5c0,15.4,10.7,28.3,25,31.7v15.3
	l-35,35v65.7h-35v-95.9c17.1-3.5,30-18.7,30-36.8c0-20.7-16.8-37.5-37.5-37.5s-37.5,16.8-37.5,37.5c0,18.1,12.9,33.3,30,36.8v95.9
	h-35v-65.7l-35-35v-15.3c14.3-3.4,25-16.3,25-31.7c0-17.9-14.6-32.5-32.5-32.5s-32.5,14.6-32.5,32.5c0,15.4,10.7,28.3,25,31.7v21.5
	l35,35v59.5h-90.1V430.1L108.3,430.1z M341.1,324.9c-9.7,0-17.5-7.9-17.5-17.5c0-9.7,7.9-17.5,17.5-17.5c9.7,0,17.5,7.9,17.5,17.5
	C358.6,317.1,350.8,324.9,341.1,324.9z M256,345c-12.4,0-22.5-10.1-22.5-22.5c0-12.4,10.1-22.5,22.5-22.5
	c12.4,0,22.5,10.1,22.5,22.5C278.5,334.8,268.4,345,256,345z M170.9,324.9c-9.7,0-17.5-7.9-17.5-17.5c0-9.7,7.9-17.5,17.5-17.5
	s17.5,7.9,17.5,17.5C188.4,317.1,180.6,324.9,170.9,324.9z"/>
<rect x="244" y="326.4" width="23.9" height="18"/>
<rect x="100.4" y="410.2" width="23.9" height="18"/>
<rect x="387.7" y="410.2" width="23.9" height="18"/>
<rect x="244" y="242.6" width="23.9" height="18"/>
<rect x="279.9" y="242.6" width="23.9" height="18"/>
<rect x="208.1" y="242.6" width="23.9" height="18"/>
<path d="M256,69.1c-21.5,0-38.9,17.5-38.9,38.9s17.5,38.9,38.9,38.9s38.9-17.5,38.9-38.9S277.5,69.1,256,69.1z M256,128.9
	c-11.6,0-20.9-9.4-20.9-21S244.5,87,256,87s21,9.4,21,20.9S267.6,128.9,256,128.9z"/>
</svg>
